<svg width="128" height="124" viewBox="0 0 128 124" fill="none" xmlns="http://www.w3.org/2000/svg">
<g clip-path="url(#clip0_897_5323)">
<path d="M127.999 26.5373C127.999 40.0367 117.703 50.9763 105.011 50.9763H48.2504L48.259 50.9936C43.6133 50.9936 38.9677 51.0022 34.3134 51.0109C32.2353 51.0282 26.3274 50.9244 20.8746 54.4527C12.545 59.8317 13.7129 68.5229 13.8073 69.1369C6.15619 60.2901 3.37395 52.1611 2.21469 47.275C1.19282 42.9424 -3.81349 21.6599 12.2273 9.16372C17.3195 5.19434 23.9659 2.09839 30.3548 2.09839H105.011C111.357 2.09839 117.102 4.83112 121.267 9.25885C125.432 13.6866 127.999 19.792 127.999 26.5373Z" fill="#00FFED"/>
<path d="M33.9274 51.0109C31.1366 51.132 25.0654 51.7373 20.8663 54.4528C12.5368 59.8317 13.7047 68.5229 13.7991 69.1369C13.3955 68.6699 12.9919 68.1856 12.5797 67.684C11.8756 66.8192 11.223 65.9631 10.6133 65.1243C10.785 63.7579 11.2487 61.544 12.6055 59.2696C14.3487 56.3639 16.6157 54.9457 18.1528 54.0117C23.6829 50.6563 30.8102 50.9763 33.9188 51.0022L33.9274 51.0109Z" fill="#0F274C"/>
<path d="M44.1283 32.219C47.6757 32.219 50.5514 29.3229 50.5514 25.7504C50.5514 22.1778 47.6757 19.2817 44.1283 19.2817C40.5808 19.2817 37.7051 22.1778 37.7051 25.7504C37.7051 29.3229 40.5808 32.219 44.1283 32.219Z" fill="#0F274C"/>
<path d="M67.2015 32.219C70.7489 32.219 73.6247 29.3229 73.6247 25.7504C73.6247 22.1778 70.7489 19.2817 67.2015 19.2817C63.6541 19.2817 60.7783 22.1778 60.7783 25.7504C60.7783 29.3229 63.6541 32.219 67.2015 32.219Z" fill="#0F274C"/>
<path d="M90.2757 32.219C93.8231 32.219 96.6989 29.3229 96.6989 25.7504C96.6989 22.1778 93.8231 19.2817 90.2757 19.2817C86.7283 19.2817 83.8525 22.1778 83.8525 25.7504C83.8525 29.3229 86.7283 32.219 90.2757 32.219Z" fill="#0F274C"/>
<path d="M0 99.3643C0 85.8649 10.296 74.9254 22.9878 74.9254H79.7488V74.9081C84.3859 74.9081 89.0315 74.8994 93.6858 74.8908C95.7638 74.8735 101.672 74.9772 107.125 71.4489C115.454 66.0699 114.286 57.3788 114.192 56.7648C121.843 65.6116 124.625 73.7406 125.785 78.6266C126.806 82.9592 131.813 104.242 115.772 116.738C110.68 120.707 104.025 123.803 97.6358 123.803H22.9878C16.6419 123.803 10.8971 121.071 6.73232 116.643C2.56756 112.215 0 106.11 0 99.3643Z" fill="#0F274C"/>
<path d="M94.0723 74.8908C96.8631 74.7697 102.934 74.1643 107.133 71.4489C115.463 66.0699 114.295 57.3788 114.201 56.7648C114.604 57.2318 115.008 57.716 115.42 58.2176C116.124 59.0824 116.777 59.9385 117.386 60.7774C117.215 62.1438 116.751 64.3576 115.394 66.632C113.651 69.5377 111.384 70.956 109.847 71.8899C104.317 75.2453 97.1894 74.9254 94.0808 74.8994L94.0723 74.8908Z" fill="#00FFED"/>
</g>
<defs>
<clipPath id="clip0_897_5323">
<rect width="128" height="123.803" fill="white"/>
</clipPath>
</defs>
</svg>
